<?xml version="1.0" standalone="no"?>
<!DOCTYPE svg PUBLIC "-//W3C//DTD SVG 1.1//EN" "http://www.w3.org/Graphics/SVG/1.1/DTD/svg11.dtd">
<svg xmlns="http://www.w3.org/2000/svg">
<metadata>Generated by Fontastic.me</metadata>
<defs>
<font id="care" horiz-adv-x="512">
<font-face font-family="care" units-per-em="512" ascent="480" descent="-32"/>
<missing-glyph horiz-adv-x="512" />

<glyph glyph-name="care-arrow-left" unicode="&#97;" d="M309 379l-122-123 122-123 16 15-107 108 107 108z"/>
<glyph glyph-name="ami-tick-circle" unicode="&#97;" d="M256 494c-131 0-238-107-238-238 0-131 107-238 238-238 131 0 238 107 238 238 0 131-107 238-238 238z m0-457c-121 0-219 98-219 219 0 121 98 219 219 219 121 0 219-98 219-219 0-121-98-219-219-219z m-47 153l-65 64-12-12 77-78 171 171-12 13z"/>
<glyph glyph-name="omi-menu-burger" unicode="&#98;" d="M55 106l402 0 0 48-402 0z m0 252l402 0 0 48-402 0z m0-126l402 0 0 48-402 0z"/>
<glyph glyph-name="ami-x" unicode="&#99;" d="M107 398l143-142-143-142 26-26 143 142 142-142 26 26-143 142 143 142-26 26-142-142-143 142z"/>
<glyph glyph-name="ami-tick" unicode="&#102;" d="M477 393l-28 24-270-270-117 116-27-26 144-142z"/>
<glyph glyph-name="ami-delete" unicode="&#101;" d="M448 430l-110 0 0 27c0 15-12 28-27 28l-110 0c-15 0-27-13-27-28l0-27-110 0 0-19 27 0 38-384 254 0 38 384 27 0z m-256 27c0 5 4 9 9 9l110 0c5 0 9-4 9-9l0-27-128 0z m175-411l-222 0-35 365 292 0z m-120 311l18 0 0-256-18 0z m-55 0l18 0 0-256-18 0z m110 0l18 0 0-256-18 0z"/>
<glyph glyph-name="ami-info-circle" unicode="&#103;" d="M256 494c-131 0-238-107-238-238 0-131 107-238 238-238 131 0 238 107 238 238 0 131-107 238-238 238m0-457c-121 0-219 98-219 219 0 121 98 219 219 219 121 0 219-98 219-219 0-121-98-219-219-219m-18 365l36 0 0-36-36 0z m36-73l-55 0 0-18 19 0 0-183-19 0 0-18 74 0 0 18-19 0z"/>
<glyph glyph-name="ami-edit-pencil" unicode="&#48;" d="M54 54l342 0 0 241-20 0 0-221-302 0 0 301 221 0 0 20-241 0z m361 348l-191-192-14 14 191 192-14 14-205-206-7-50 50 7 205 206z m43 14l-43 42-14-14 43-42z"/>
<glyph glyph-name="ami-minus-circle" unicode="&#113;" d="M256 485c-126 0-229-103-229-229 0-126 103-229 229-229 126 0 229 103 229 229 0 126-103 229-229 229m0-439c-116 0-210 94-210 210 0 116 94 210 210 210 116 0 210-94 210-210 0-116-94-210-210-210m-137 219l274 0 0-18-274 0z"/>
<glyph glyph-name="ami-user-card" unicode="&#114;" d="M256 18c131 0 238 107 238 238 0 131-107 238-238 238-131 0-238-107-238-238 0-131 107-238 238-238m0 19c-49 0-93 16-130 43 11 5 23 10 36 16 1 0 19 7 19 7 8 4 41 23 46 50 1 9 0 23-13 36-5 5-11 16-16 44l-3 14-10 0c-2 4-5 10-7 19-1 5-2 10-2 13l11-3-3 27c-2 16-1 24 0 26 3 5 7 10 10 14 7 10 13 18 21 32 7 12 36 20 65 24 0-3 0-7 1-11 1-5 5-16 19-21 8-2 10-7 17-18 3-7 6-13 11-21 0 0 3-6 1-26l-3-24 10 2c0-4-1-8-2-14-2-9-5-15-7-19l-10 0-3-14c-5-28-11-40-16-44-13-13-14-27-13-36 5-27 38-46 45-49 1-1 19-8 21-9 13-5 24-11 35-16-37-26-81-42-130-42m0 438c121 0 219-98 219-219 0-65-28-124-73-164-16 8-33 15-45 20-2 1-19 9-19 9 0 0-55 27-27 55 11 11 17 32 21 54 7 0 15 14 20 33 5 19 3 37-3 39-1 0-1 0-2-1 1 16 1 32-4 38-14 20-15 38-37 46-21 8 5 36 5 36 0 0-92-3-112-36-11-19-17-26-31-46-5-7-5-22-3-38 0 0-1 1-2 0-7-1-8-19-3-39 5-18 13-32 20-33 4-21 10-42 21-53 28-28-27-56-27-56 0 0-17-7-19-8-12-5-29-12-45-20-45 41-73 99-73 164 0 121 98 219 219 219"/>
<glyph glyph-name="ami-user-male-circle" unicode="&#52;" d="M256 18c131 0 238 107 238 238 0 131-107 238-238 238-131 0-238-107-238-238 0-131 107-238 238-238m0 457c121 0 219-98 219-219 0-65-28-124-73-164-16 8-33 15-45 20-2 1-19 9-19 9 0 0-55 27-27 55 11 11 17 32 21 54 7 0 15 14 20 33 5 19 4 37-3 39 0 0-1 0-2-1 2 16 1 32-3 38-15 20-16 38-37 46-22 8 4 36 4 36 0 0-92-3-112-36-11-19-17-26-31-46-4-7-5-22-3-38 0 0-1 1-2 0-6-1-8-19-3-39 5-18 13-32 20-33 4-21 10-42 21-53 28-28-27-56-27-56 0 0-17-7-19-8-12-5-28-12-44-20-46 41-74 99-74 164 0 121 98 219 219 219"/>
<glyph glyph-name="ami-move-item" unicode="&#116;" d="M92 164l328 0 0-21-328 0z m0 102l328 0 0-20-328 0z m0 102l328 0 0-20-328 0z"/>
<glyph glyph-name="ami-dots-vertical" unicode="&#117;" d="M254 475c14 0 26-5 36-14 10-10 15-22 15-37 0-14-5-27-15-37-10-10-23-14-36-14-14 0-26 5-36 14-10 10-15 22-15 37 0 14 5 27 15 37 9 9 22 14 36 14z m0-170c14 0 26-5 36-15 10-10 15-23 15-36 0-14-5-26-15-36-10-10-23-15-36-15-14 0-26 5-36 15-10 10-15 23-15 36 0 14 5 26 15 36 9 10 22 15 36 15z m0-171c14 0 26-5 36-14 10-10 15-22 15-37 0-14-5-27-15-37-10-10-23-14-36-14-14 0-26 5-36 14-10 10-15 22-15 37 0 14 5 27 15 37 9 10 22 14 36 14z"/>
<glyph glyph-name="ami-plus-circle" unicode="&#118;" d="M256 485c-126 0-229-103-229-229 0-126 103-229 229-229 126 0 229 103 229 229 0 126-103 229-229 229m0-439c-116 0-210 94-210 210 0 116 94 210 210 210 116 0 210-94 210-210 0-116-94-210-210-210m9 219l128 0 0-18-128 0 0-128-18 0 0 128-128 0 0 18 128 0 0 128 18 0z"/>
<glyph glyph-name="ami-photo-gallery" unicode="&#119;" d="M18 9l476 0 0 384-476 0z m19 366l438 0 0-208-128 80-109-110-55 37-55-37-91 0z m0-256l96 0 50 33 57-38 110 110 126-79 0-118-439 0z m146 164c0 31-25 55-55 55-30 0-55-24-55-55 0-30 25-54 55-54 30 0 55 24 55 54m-92 0c0 21 17 37 37 37 20 0 37-16 37-37 0-20-17-36-37-36-20 0-37 16-37 36m-36 165l402 0 0-18-402 0z m36 55l330 0 0-18-330 0z"/>
<glyph glyph-name="ami-photocam" unicode="&#120;" d="M55 64l402 0c20 0 37 16 37 37l0 219c0 20-17 37-37 37l-36 0c-21 0-43 15-51 34l-9 23c-8 19-30 34-50 34l-110 0c-20 0-42-15-50-34l-9-24c-8-18-30-33-51-33l-36 0c-20 0-37-17-37-37l0-219c0-21 17-37 37-37m-18 256c0 10 8 18 18 18l36 0c28 0 57 20 68 46l9 23c5 12 21 23 33 23l110 0c12 0 28-11 33-23l9-23c11-26 40-46 68-46l36 0c10 0 18-8 18-18l0-219c0-10-8-19-18-19l-402 0c-10 0-18 9-18 19z m219-183c50 0 91 41 91 92 0 50-41 91-91 91-50 0-91-41-91-91 0-51 41-92 91-92m0 165c40 0 73-33 73-73 0-41-33-74-73-74-40 0-73 33-73 74 0 40 33 73 73 73"/>
<glyph glyph-name="care-phone" unicode="&#121;" d="M37 366c0-110 96-206 96-206 7-8 20-20 27-28 0 0 96-96 206-96 66 0 92 43 102 77 7 22 7 41 7 41 0 11-8 22-18 26l-87 28c-10 4-20-2-23-12 0 0-4-16-10-33-10-22-54-44-136 38-82 82-60 126-37 136 16 6 32 10 32 10 10 3 16 13 13 23l-29 87c-4 10-15 18-26 18 0 0-18 0-41-7-34-10-76-36-76-102m81 85c20 6 36 6 37 6 2 0 7-3 8-6l28-86c-1 0-17-5-34-11-16-7-28-21-31-39-5-25 2-66 62-127 42-42 80-64 113-64 29 0 46 17 53 33 7 17 11 34 11 34l86-29c3-1 6-5 6-8 0 0 0-16-6-36-13-42-42-63-85-63-101 0-192 89-193 90-6 5-28 28-28 28 0 1-90 92-90 193 0 43 21 72 63 85"/>
<glyph glyph-name="care-alarm" unicode="&#122;" d="M238 309l36 0 0-141-36 0z m0-212l36 0 0 36-36 0z m18 371l247-424-494 0z m216-406l-216 371-216-371z"/>
<glyph glyph-name="ami-qr-code" unicode="&#65;" d="M37 340l135 0 0 135-135 0z m16 119l102 0 0-102-102 0z m17-17l68 0 0-68-68 0z m-33-405l135 0 0 135-135 0z m16 118l102 0 0-102-102 0z m17-17l68 0 0-68-68 0z m405 337l-135 0 0-135 135 0z m-16-118l-102 0 0 102 102 0z m-17 17l-68 0 0 68 68 0z m-405-67l67 0 0 16 17 0 0-118 17 0 0 68 17 0 0-68 50 0 0 68 34 0 0-17-17 0 0-51 17 0 0-16-135 0 0 50-34 0 0 17 34 0 0 34-67 0z m152-135l16 0 0-68-16 0z m-152 67l16 0 0-34 17 0 0-16-33 0z m152-152l50 0 0-17-34 0 0-16 85 0 0-17-101 0z m84 220l0 50-68 0 0-17-16 0 0 135 134 0 0-16-118 0 0-85 118 0 0-17-33 0 0-84 67 0 0-17-34 0 0-34 68 0 0-17-118 0 0 17 33 0 0 34-50 0 0 17 17 0 0 17-85 0 0-51-16 0 0 51-17 0 0 16 118 0z m-34 118l0-17 68 0 0 34 16 0 0-51-101 0 0 51 34 0 0-17z m152-372l67 0 0 51-33 0 0-34-17 0 0 85 17 0 0-34 33 0 0 34 17 0 0-118-84 0 0 16z m-84 0l67 0 0-16-67 0z m67 68l-17 0 0 17-34 0 0 17 34 0 0 17 17 0z m0-34l-34 0 0-17-17 0 0 17-67 0 0 17 34 0 0 34-34 0 0 17 34 0 0 17-34 0 0 16 67 0 0-16-16 0 0-68 67 0z m101 85l-16 0 0 67-34 0 0 17 34 0 0 51-34 0 0 16 50 0z m-236-68l-17 0 0 51 17 0z m68 219l67 0 0-16-67 0z m135-50l-51 0 0-34-17 0 0 51 68 0z m-17-101l-17 0 0 50 17 0z"/>
<glyph glyph-name="ami-search" unicode="&#66;" d="M321 226c19 26 30 58 30 93 0 88-70 159-158 159-88 0-159-71-159-159 0-88 71-158 159-158 35 0 67 11 93 30l149-149c10-10 25-10 35 0 10 9 10 25 0 35z m-128-49c-78 0-142 64-142 142 0 78 63 142 142 142 78 0 142-63 142-142 0-78-64-142-142-142m265-123c-3-4-8-4-11 0l-148 147c4 4 8 8 12 12l147-148c4-3 4-8 0-11"/>
<glyph glyph-name="ami-envelope" unicode="&#67;" d="M494 439l-476 0 0-366 476 0z m-457-70l164-120-164-110z m438-278l-438 0 0 26 180 120 39-29 39 29 180-120z m0 48l-164 110 164 120z m0 253l-219-161-219 161 0 29 438 0z"/>
<glyph glyph-name="omi-gear" unicode="&#55;" d="M498 275l-38 0c-2 23-8 46-18 67l33 19-19 32-33-19c-13 19-30 36-49 49l19 33-32 19-19-33c-21 10-43 16-67 18l0 38-38 0 0-38c-23-2-46-8-67-18l-19 33-32-19 19-33c-19-13-36-30-49-49l-33 19-19-32 33-19c-10-21-16-44-18-68l-38 0 0-37 38 0c2-24 8-46 18-67l-33-19 19-33 33 20c13-20 30-36 49-50l-19-33 32-18 19 33c21-10 44-16 67-18l0-39 38 0 0 39c23 2 46 8 67 18l19-33 33 18-20 33c19 14 36 30 49 50l34-20 18 33-33 19c10 21 16 43 18 67l38 0 0 38z m-242-205c-103 0-186 83-186 186 0 103 83 186 186 186 103 0 186-83 186-186 0-103-83-186-186-186m0 279c-52 0-93-41-93-93 0-52 41-93 93-93 52 0 93 41 93 93 0 52-41 93-93 93m0-168c-41 0-75 34-75 75 0 41 34 75 75 75 41 0 75-34 75-75 0-41-34-75-75-75"/>
<glyph glyph-name="care-fall" unicode="&#49;" d="M333 481l-154 0c-82 0-148-66-148-148l0-155c0-81 66-147 148-147l155 0c82 0 148 66 148 148l0 154c-1 82-67 148-149 148z m-164-84c6 6 15 11 25 11 12 0 23-7 29-18 6-10 6-23 0-34-6-10-15-15-26-16-1 0-2 0-4 0-10 0-18 4-25 10-6 6-10 16-10 25 1 7 5 16 11 22z m239-255l-65 67-51-3 20-13c5-3 10-6 12-11 1-4-12-97-12-97l-25 0 5 83-65 30c-5 2-9 6-11 11l-36 75-22-23-11-70-23 4 3 69c0 4 2 8 7 14l41 41c2 3 4 4 7 5 13 4 32 11 38 13 1 1 3 1 4 1l29 2 55 43 11-13-46-52c-3-3-7-5-12-6l-25-2 37-74 65 4c5 0 11-2 15-7l73-74z"/>
<glyph glyph-name="care-geofencing" unicode="&#51;" d="M256 333c-25 0-45-21-45-45 0-25 20-45 45-45 25 0 45 20 45 45 0 24-20 45-45 45z m77 148l-154 0c-82 0-148-66-148-148l0-155c0-81 66-147 148-147l155 0c82 0 148 66 148 148l0 154c-1 82-67 148-149 148z m-77-373c0 0-95 105-95 180 0 52 43 95 95 95 52 0 95-43 95-95 0-74-95-180-95-180z"/>
<glyph glyph-name="care-legal" unicode="&#74;" d="M66 438l0-363c0-24 19-43 43-43l337 0 0 380-337 0c-15 0-26 11-26 25 0 15 11 26 26 26l337 0 0 18-337 0c-24 0-43-19-43-43m43-44l320 0 0-346-320 0c-15 0-26 11-26 26l0 329c7-5 16-9 26-9m9 52l312 0 0-17-312 0z"/>
<glyph glyph-name="care-logout" unicode="&#75;" d="M31 409l0-306 306 0 0 113-16 0 0-97-274 0 0 274 274 0 0-97 16 0 0 113z m144-161l279 0-78-77 11-11 91 91c1 1 2 3 2 6 0 3-1 4-2 6l-91 91-11-11 78-77-279 0z"/>
<glyph glyph-name="care-period" unicode="&#76;" d="M112 399c-38-38-61-89-61-145 0-113 92-205 205-205 113 0 205 92 205 205 0 111-87 200-197 205l-16 0 0-115 16 0 0 98c101-4 180-87 180-188 0-103-85-188-188-188-103 0-188 85-188 188 0 52 21 99 55 133z m161-162c10 9 10 25 0 34-9 10-115 81-115 81 0 0 71-106 81-115 9-10 25-10 34 0"/>
<glyph glyph-name="care-ulcera" unicode="&#50;" d="M333 481l-154 0c-82 0-148-66-148-148l0-155c0-81 66-147 148-147l155 0c82 0 148 66 148 148l0 154c-1 82-67 148-149 148z m-81-45c21 0 38-17 38-38 0-21-18-38-38-38-22 0-38 18-38 38-1 22 16 38 38 38z m-74-106c0 11 9 20 21 20l106 0c11 0 21-9 21-20l0-94c-9-6-17-10-25-14l0 73-5 0 0-75c-17-6-36-9-54-7-12 1-22 3-32 7l0 75-5 0 0-73c-10 3-19 8-27 14z m71-254c-13 0-28 2-40 4l0 81c8-2 17-4 27-4 5 0 9 0 14-1l0-80z m46 4c-13-3-27-4-40-4l0 80c13 0 27 2 40 5z m106 141l-18 15c-42-43-93-65-146-61-55 5-103 37-136 89 5 2 12 4 17 6 29-45 72-73 120-77 47-5 93 14 131 53l-19 14 60 25z"/>
<glyph glyph-name="care-sensor-status" unicode="&#54;" d="M137 369c32 30 76 48 123 47 45-1 86-21 116-49l-14-13c-26 26-62 43-102 44-42 1-82-15-110-42l-13 13m172-66c-14 12-31 21-52 22-23 1-43-9-58-23l-13 13c19 18 44 28 72 27 26-1 48-11 65-27z m-53 189c-130 0-236-106-236-236 0-130 106-236 236-236 130 0 236 106 236 236 0 130-106 236-236 236z m43-294l-88 0c-9 0-16 7-16 16 0 9 7 16 16 16l88 0c9 0 16-7 16-16-1-9-8-16-16-16z m98-107l0 69c0 59-48 106-106 106l-70 0c-59 0-106-48-106-106l0-69c-47 40-76 99-76 165 0 120 97 217 217 217 120 0 217-97 217-217 0-66-29-125-76-165z"/>
<glyph glyph-name="care-sensor-gross" unicode="&#115;" d="M129 376c34 32 80 51 131 49 48-1 91-21 123-52l-14-14c-29 28-66 46-109 47-45 2-87-16-118-45l-13 15m184-69c-15 13-34 22-55 22-25 1-47-8-62-23l-14 13c20 19 47 30 76 29 27-1 51-12 69-29z m-57 200c-139 0-251-112-251-251 0-139 112-251 251-251 139 0 251 112 251 251 0 139-112 251-251 251z m-30-414c-2 0-4 2-4 4 0 6 0 12 0 18 0 1 0 3-1 4-1 2-2 4-5 4-5 0-7-2-8-6 0-1 0-2 0-2 0-6 0-12 0-18 0-3-2-5-5-5-3 0-4 2-4 5 0 6 0 12 0 18 0 1 0 2-1 3-1 4-4 5-8 4-2 0-4-2-5-5 0-1 0-2 0-3 0-6 0-12 0-17 0-3-2-5-5-5-2 0-4 2-4 5 0 5 0 9 0 15 0 4 0 9 0 14 0 3 2 5 4 6 2 0 3-1 4-2 0 0 1 0 1 0 2 2 5 2 8 2 3 0 6-1 9-3 0 0 1-1 2-2 0 0 0 0 0 0 3 3 6 5 9 5 6 1 10 0 14-5 2-2 4-5 4-8 0-1 0-3 0-4 0-6 0-12 0-18 0-2-2-5-5-4z m-18 101c-9 0-17 7-17 16 0 10 8 17 17 17l94 0c9 0 16-7 16-17 0-9-7-16-16-16z m82-54c0-3-2-5-4-5-3 0-5 2-5 5 0 2 2 4 5 4 2 0 4-2 4-4z m-22-43c-3-3-7-4-11-5-5 0-9 0-13 3-4 3-7 7-8 13-2 5 0 10 3 15 3 5 8 8 14 8 9 1 15-3 18-10 2-3 2-6 2-10 1-5-1-10-5-14z m22 1c0-2-1-4-3-5-3 0-5 1-5 4 0 0 0 1 0 1 0 10 0 19 0 28 0 3 1 5 4 5 2 1 4-1 5-4 0 0 0-1 0-1 0-5 0-9 0-14-1-5-1-10-1-14z m43 2c-3-4-8-7-14-8-4 0-8 0-12 3-4 3-7 7-9 13-1 1-1 3-1 4 0 5 3 10 7 14 3 3 7 5 11 5 7 1 12-1 16-6 3-3 5-6 5-11 1-4 0-9-3-14z m74-19l0 73c0 63-51 113-114 113l-74 0c-63 0-114-51-114-113l0-73c-49 42-80 105-80 175 0 127 104 231 231 231 127 0 231-104 231-231 0-70-31-133-80-175z m-154 42c-3-1-5-2-6-4-2-3-3-7-2-10 1-5 5-8 12-8 2 0 5 1 6 4 2 3 2 5 2 8-1 6-6 10-12 10z m57-3c-2-2-3-5-3-8 0 0 0-1 0-2 1-5 4-8 9-9 4 0 7 1 9 4 2 3 2 6 2 9-1 3-2 5-5 7-3 3-8 2-12-1z"/>
<glyph glyph-name="care-phone-filled" unicode="&#77;" d="M82 343c0-87 76-163 76-163 6-6 16-16 22-22 0 0 76-76 163-76 52 0 73 34 82 60 5 18 5 33 5 33 0 8-6 18-14 21l-69 22c-8 3-16-2-18-10 0 0-3-12-8-26-8-18-42-36-108 30-66 66-48 100-30 107 14 6 26 9 26 9 8 2 12 10 10 18l-22 69c-3 8-13 14-21 14 0 0-15 0-33-5-27-8-61-29-61-81"/>
<glyph glyph-name="care-add-filled" unicode="&#100;" d="M256 492c-130 0-236-106-236-236 0-130 106-236 236-236 130 0 236 106 236 236 0 130-106 236-236 236z m11-387l-21 0 0 141-141 0 0 21 141 0 0 141 21 0 0-141 141 0 0-21-141 0z"/>
<glyph glyph-name="care-arrow-down" unicode="&#57;" d="M256 218l-108 107-15-16 123-122 123 122-15 16z"/>
<glyph glyph-name="care-arrow-left" unicode="&#71;" d="M309 379l-122-123 122-123 16 15-107 108 107 108z"/>
<glyph glyph-name="care-arrow-right" unicode="&#72;" d="M187 364l107-108-107-108 16-15 122 123-122 123z"/>
<glyph glyph-name="care-arrow-up" unicode="&#73;" d="M133 202l15-15 108 107 108-107 15 15-123 123z"/>
<glyph glyph-name="care-delete-filled" unicode="&#70;" d="M256 430c-96 0-174-78-174-174 0-96 78-174 174-174 96 0 174 78 174 174 0 96-78 174-174 174z m-112-182l0 16 224 0 0-16z"/>
<glyph glyph-name="care-edit" unicode="&#112;" d="M20 375l250 0 0-21-229 0 0-313 312 0 0 229 21 0 0-250-354 0z m427 57l-250-250-15 15 250 250-14 15-265-265-8-52 52 8 265 265z m45 15l-45 45-14-15 44-44z"/>
<glyph glyph-name="care-female" unicode="&#79;" d="M256 20c130 0 236 106 236 236 0 130-106 236-236 236-130 0-236-106-236-236 0-130 106-236 236-236m0 19c-44 0-85 13-120 36 26 7 54 13 68 13l7 0 5 5c4 4 26 34 20 66l-5 20-19-7c-21-7-39-10-52-10-13 0-22 3-28 8 7 3 14 8 21 21 5 11 6 23 6 40 1 19 2 44 10 76 14 55 55 75 86 75 31 0 72-20 86-75 8-32 9-57 10-77 1-17 1-29 6-40 7-12 14-18 21-21-5-6-16-9-28-9-14 0-32 3-52 10l-19 7-5-20c-6-32 16-61 20-66l5-5 7 0c13 0 42-6 68-13-33-21-74-34-118-34m0 434c120 0 217-97 217-217 0-68-31-128-80-168-31 10-69 18-86 18-3 4-18 27-14 50 124-42 110 45 110 45 0 0-14-30-29 0-8 15 0 53-16 112-16 64-64 88-103 88-39 0-88-24-103-88-16-59-8-96-16-112-15-30-30 0-30 0 0 0-12-87 112-44 4-23-11-46-14-49-17 0-56-9-86-19-1 1-3 3-4 4 0 1-1 2-2 1-44 39-73 97-73 162 0 120 97 217 217 217"/>
<glyph glyph-name="care-female-filled" unicode="&#68;" d="M256 20c61 0 118 24 160 63 46 43 76 104 76 173 0 130-106 236-236 236-130 0-236-106-236-236 0-69 30-130 76-173 42-39 99-63 160-63m-217 236c0 120 97 217 217 217 120 0 217-97 217-217 0-65-29-123-74-163-22 10-64 19-89 23-8 1-13 2-13 2 0 0-8 17-7 37 0 3 0 7 1 10 116-40 104 42 104 42 0 0-14-28-28 0-8 15 0 50-15 106-15 61-60 84-97 84-37 0-82-23-97-84-15-55-6-91-15-106-14-28-28 0-28 0 0 0-12-82 104-42 1-4 1-7 1-10 0-20-7-37-7-37 0 0-5-1-13-2-24-4-67-13-89-23-44 40-72 98-72 163"/>
<glyph glyph-name="care-history" unicode="&#53;" d="M138 492l0-36-72 0 0-436 380 0 0 436-72 0 0 36-19 0 0-36-54 0 0 36-18 0 0-36-55 0 0 36-18 0 0-36-54 0 0 36z m73-55l0-18 18 0 0 18 55 0 0-18 18 0 0 18 54 0 0-18 19 0 0 18 54 0 0-398-345 0 0 398 54 0 0-18 19 0 0 18z m-73-91l236 0 0-18-236 0z m0-72l236 0 0-18-236 0z m0-72l236 0 0-19-236 0z m0-73l109 0 0-18-109 0z"/>
<glyph glyph-name="care-arrow-left-big" unicode="&#106;" d="M319 401l-145-145 145-145 19 18-127 127 127 127z"/>
<glyph glyph-name="care-arrow-right-big" unicode="&#105;" d="M175 382l126-126-126-126 19-17 143 143-143 143z"/>
<glyph glyph-name="care-add-small-filled" unicode="&#104;" d="M256 430c-96 0-174-78-174-174 0-96 78-174 174-174 96 0 174 78 174 174 0 96-78 174-174 174z m8-286l-16 0 0 104-104 0 0 16 104 0 0 104 16 0 0-104 104 0 0-16-104 0z"/>
<glyph glyph-name="ami-adress-pin" unicode="&#107;" d="M329 329c0 41-33 73-73 73-40 0-73-32-73-73 0-40 33-73 73-73 40 0 73 33 73 73m92 0c0 91-74 165-165 165-91 0-165-74-165-165 0-128 165-311 165-311 0 0 165 183 165 311m-165 146c81 0 146-65 146-146 0-98-107-236-146-283-39 47-146 185-146 283 0 81 65 146 146 146"/>
<glyph glyph-name="care-position" unicode="&#108;" d="M256 16c129 0 230 51 230 115 0 51-64 94-155 110 26 42 49 90 49 131 0 67-55 123-124 123-69 0-124-56-124-123 0-41 23-89 49-131-91-16-155-58-155-109 0-64 101-116 230-116m-106 357c0 57 48 104 106 104 58 0 106-47 106-104 0-70-75-167-106-205-31 37-106 135-106 205m134-199c35-5 60-19 60-34 0-16-38-36-89-36-51 0-89 19-89 36 0 14 24 28 60 34 17-20 28-34 28-34 0 0 13 14 30 34m-93 50c9-12 17-23 25-35-40-7-66-26-66-49 0-30 46-53 106-53 60 0 106 23 106 53 0 24-26 42-66 49 8 11 16 22 25 35 85-13 148-50 148-92 0-53-97-97-213-97-116 0-213 44-213 97 0 42 63 80 148 92m65 94c30 0 53 24 53 54 0 29-23 53-53 53-30 0-53-24-53-53 0-30 23-54 53-54"/>
<glyph glyph-name="care" unicode="&#110;" d="M298 451c0 23-18 41-40 41-23 0-41-18-41-41 0-9 4-19 11-26l-16 0-48-27 0-107c0-8 6-13 13-13l14 0 0-49-29-75c-3-7 0-15 7-18l13-5c7-2 14 1 17 8l38 100 1 9 20-24 0-81c0-7 6-13 13-13l13 0c8 0 14 6 14 13l0 108-27 45 4 34 54-19c3-1 7-1 10 1 4 1 6 4 7 7l5 13c1 3 0 7-1 10-2 4-4 6-8 7l-63 22 0-1 5 51c9 8 14 19 14 30m-67 0c0 15 12 27 27 27 15 0 27-12 27-27 0-15-12-27-27-27-15 0-27 12-27 27m-6-210l-38-98-13 5 30 78 0 64 22-27z m113 95l-4-12-58 20 2 14z m-68 75l-13-118 27-46 0-104-13 0 0 85-67 82 0 61-13 0 0-80-14 0 0 99 38 21z m-66-40l14 0 0-13-14 0z m86-351l-62 99-40-66-104 0 0 12 97 0 46 77 64-100 23 36 64 0 0 21 50-28-50-27 0 21-57 0z"/>
</font>
</defs>
</svg>
